<mxfile host="app.diagrams.net" modified="2023-05-08T20:57:20.524Z" agent="Mozilla/5.0 (Windows NT 10.0; Win64; x64) AppleWebKit/537.36 (KHTML, like Gecko) Chrome/112.0.0.0 Safari/537.36" etag="RdaSynl_5QJxBC_Gx7Y_" version="21.1.4" type="device">
  <diagram name="Page-1" id="vqmv8sd_a_gL92ytXBup">
    <mxGraphModel dx="989" dy="488" grid="1" gridSize="10" guides="1" tooltips="1" connect="1" arrows="1" fold="1" page="1" pageScale="1" pageWidth="850" pageHeight="1100" math="0" shadow="0">
      <root>
        <mxCell id="0" />
        <mxCell id="1" parent="0" />
        <mxCell id="43cmPsAvW8_jQMl78b9p-21" style="rounded=0;orthogonalLoop=1;jettySize=auto;html=1;entryX=0;entryY=0.25;entryDx=0;entryDy=0;startArrow=classic;startFill=1;exitX=1;exitY=0.5;exitDx=0;exitDy=0;" edge="1" parent="1" source="43cmPsAvW8_jQMl78b9p-18" target="43cmPsAvW8_jQMl78b9p-19">
          <mxGeometry relative="1" as="geometry" />
        </mxCell>
        <mxCell id="43cmPsAvW8_jQMl78b9p-18" value="Clicking button to add new record in homepage&amp;nbsp;&lt;br&gt;(/records/:rid)" style="rounded=0;whiteSpace=wrap;html=1;" vertex="1" parent="1">
          <mxGeometry x="150" y="170" width="120" height="60" as="geometry" />
        </mxCell>
        <mxCell id="43cmPsAvW8_jQMl78b9p-23" style="edgeStyle=orthogonalEdgeStyle;rounded=0;orthogonalLoop=1;jettySize=auto;html=1;startArrow=classic;startFill=1;" edge="1" parent="1" source="43cmPsAvW8_jQMl78b9p-19" target="43cmPsAvW8_jQMl78b9p-22">
          <mxGeometry relative="1" as="geometry" />
        </mxCell>
        <mxCell id="43cmPsAvW8_jQMl78b9p-19" value="Express Backend" style="rounded=0;whiteSpace=wrap;html=1;" vertex="1" parent="1">
          <mxGeometry x="360" y="240" width="120" height="60" as="geometry" />
        </mxCell>
        <mxCell id="43cmPsAvW8_jQMl78b9p-22" value="MongoDB&lt;br&gt;(record collection)" style="rounded=0;whiteSpace=wrap;html=1;" vertex="1" parent="1">
          <mxGeometry x="540" y="240" width="120" height="60" as="geometry" />
        </mxCell>
        <mxCell id="43cmPsAvW8_jQMl78b9p-29" style="rounded=0;orthogonalLoop=1;jettySize=auto;html=1;startArrow=classic;startFill=1;" edge="1" parent="1" source="43cmPsAvW8_jQMl78b9p-28" target="43cmPsAvW8_jQMl78b9p-19">
          <mxGeometry relative="1" as="geometry" />
        </mxCell>
        <mxCell id="43cmPsAvW8_jQMl78b9p-28" value="Viewing the record page (/records)" style="rounded=0;whiteSpace=wrap;html=1;" vertex="1" parent="1">
          <mxGeometry x="150" y="240" width="120" height="60" as="geometry" />
        </mxCell>
        <mxCell id="43cmPsAvW8_jQMl78b9p-31" style="rounded=0;orthogonalLoop=1;jettySize=auto;html=1;entryX=0.003;entryY=0.878;entryDx=0;entryDy=0;entryPerimeter=0;startArrow=classic;startFill=1;exitX=1;exitY=0.5;exitDx=0;exitDy=0;" edge="1" parent="1" source="43cmPsAvW8_jQMl78b9p-30" target="43cmPsAvW8_jQMl78b9p-19">
          <mxGeometry relative="1" as="geometry" />
        </mxCell>
        <mxCell id="43cmPsAvW8_jQMl78b9p-30" value="Clicking button to delete a record (/record/:rid)" style="rounded=0;whiteSpace=wrap;html=1;" vertex="1" parent="1">
          <mxGeometry x="150" y="310" width="120" height="60" as="geometry" />
        </mxCell>
      </root>
    </mxGraphModel>
  </diagram>
</mxfile>
